<?xml version="1.0" encoding="UTF-8"?>
<svg xmlns="http://www.w3.org/2000/svg" xmlns:xlink="http://www.w3.org/1999/xlink" width="2500px" height="766px" viewBox="0 0 626 192" version="1.1">
<g id="surface1">
<path style=" stroke:none;fill-rule:nonzero;fill:rgb(82.745098%,21.960784%,20%);fill-opacity:1;" d="M 136.660156 92.519531 C 136.660156 130.558594 106.542969 161.398438 69.386719 161.398438 C 32.234375 161.398438 2.117188 130.558594 2.117188 92.519531 C 2.117188 54.480469 32.234375 23.640625 69.386719 23.640625 C 106.542969 23.640625 136.660156 54.480469 136.660156 92.519531 "/>
<path style=" stroke:none;fill-rule:nonzero;fill:rgb(93.72549%,23.921569%,22.745098%);fill-opacity:1;" d="M 4.859375 109.578125 C 4.859375 109.578125 -0.0078125 37.75 66.109375 35.699219 L 61.496094 28.003906 L 25.617188 40.058594 L 15.367188 51.859375 L 6.398438 69.046875 L 1.273438 89.054688 L 2.808594 102.394531 "/>
<path style=" stroke:none;fill-rule:nonzero;fill:rgb(13.72549%,12.156863%,12.54902%);fill-opacity:1;" d="M 23.3125 45.53125 C 11.511719 57.621094 4.207031 74.3125 4.207031 92.777344 C 4.207031 111.238281 11.511719 127.929688 23.3125 140.015625 C 35.121094 152.101562 51.394531 159.5625 69.386719 159.5625 C 87.378906 159.5625 103.652344 152.101562 115.460938 140.015625 C 127.265625 127.929688 134.570312 111.238281 134.570312 92.777344 C 134.570312 74.3125 127.261719 57.621094 115.460938 45.53125 C 103.652344 33.449219 87.378906 25.992188 69.386719 25.988281 C 51.394531 25.992188 35.121094 33.449219 23.3125 45.53125 Z M 20.328125 142.941406 C 7.78125 130.097656 0.0273438 112.351562 0.0273438 92.777344 C 0.0273438 73.199219 7.78125 55.453125 20.324219 42.609375 C 32.867188 29.765625 50.226562 21.804688 69.386719 21.808594 C 88.546875 21.804688 105.910156 29.765625 118.449219 42.609375 C 130.992188 55.453125 138.75 73.199219 138.746094 92.777344 C 138.75 112.351562 130.992188 130.097656 118.449219 142.941406 C 105.910156 155.785156 88.546875 163.746094 69.386719 163.746094 C 50.226562 163.746094 32.867188 155.785156 20.328125 142.941406 "/>
<path style=" stroke:none;fill-rule:nonzero;fill:rgb(94.117647%,83.921569%,71.764706%);fill-opacity:1;" d="M 97.707031 92.902344 L 87.453125 94.441406 L 73.617188 95.980469 L 64.648438 96.234375 L 55.933594 95.980469 L 49.269531 93.925781 L 43.375 87.515625 L 38.761719 74.429688 L 37.738281 71.609375 L 31.585938 69.558594 L 28 63.65625 L 25.4375 55.191406 L 28.257812 47.75 L 34.917969 45.441406 L 40.300781 48.007812 L 42.863281 53.652344 L 45.9375 53.140625 L 46.964844 51.855469 L 45.9375 45.957031 L 45.683594 38.515625 L 47.21875 28.257812 L 47.160156 22.394531 L 51.832031 14.917969 L 60.035156 9.015625 L 74.382812 2.859375 L 90.273438 5.167969 L 104.113281 15.171875 L 110.519531 25.433594 L 114.621094 32.875 L 115.644531 51.34375 L 112.570312 67.25 L 106.933594 81.359375 L 101.550781 88.796875 "/>
<path style=" stroke:none;fill-rule:nonzero;fill:rgb(20%,31.372549%,38.039216%);fill-opacity:1;" d="M 88.992188 137.28125 L 52.347656 138.820312 L 52.347656 144.976562 L 55.421875 166.523438 L 53.882812 168.320312 L 28.257812 159.597656 L 26.460938 156.519531 L 23.898438 127.53125 L 18.003906 110.089844 L 16.722656 105.984375 L 37.226562 91.875 L 43.632812 89.308594 L 49.269531 96.238281 L 54.140625 100.597656 L 59.777344 102.394531 L 62.339844 103.164062 L 65.414062 116.503906 L 67.722656 119.324219 L 73.617188 117.273438 L 69.515625 125.222656 L 91.8125 135.742188 L 88.992188 137.28125 "/>
<path style=" stroke:none;fill-rule:nonzero;fill:rgb(42.745098%,41.960784%,42.745098%);fill-opacity:1;" d="M 28.257812 47.75 L 34.917969 45.441406 L 40.300781 48.007812 L 42.863281 53.652344 L 45.9375 53.140625 L 46.707031 50.0625 L 45.171875 44.160156 L 46.707031 30.050781 L 45.425781 22.355469 L 50.039062 16.96875 L 60.035156 9.015625 L 57.214844 5.167969 L 43.121094 12.09375 L 37.226562 16.710938 L 33.894531 23.894531 L 28.769531 30.820312 L 27.230469 39.03125 L 28.257812 47.75 "/>
<path style=" stroke:none;fill-rule:nonzero;fill:rgb(86.27451%,85.098039%,84.705882%);fill-opacity:1;" d="M 38.761719 23.636719 C 38.761719 23.636719 42.605469 14.148438 57.984375 9.53125 C 73.359375 4.914062 58.753906 6.195312 58.753906 6.195312 L 42.09375 12.609375 L 35.6875 19.019531 L 32.867188 24.152344 L 38.761719 23.636719 M 31.074219 45.957031 C 31.074219 45.957031 25.691406 28 46.195312 25.433594 L 45.425781 22.355469 L 31.332031 25.691406 L 27.230469 39.03125 L 28.253906 47.75 L 31.074219 45.957031 "/>
<path style=" stroke:none;fill-rule:nonzero;fill:rgb(96.862745%,89.411765%,80.392157%);fill-opacity:1;" d="M 39.273438 69.8125 L 42.628906 66.558594 C 42.628906 66.558594 44.144531 66.734375 44.402344 68.53125 C 44.65625 70.328125 45.425781 86.488281 56.445312 95.210938 C 57.449219 96.007812 48.246094 93.925781 48.246094 93.925781 L 40.042969 81.101562 M 86.429688 64.941406 C 86.429688 64.941406 87.027344 57.164062 89.121094 57.761719 C 91.210938 58.359375 91.210938 60.453125 91.210938 60.453125 C 91.210938 60.453125 86.132812 63.742188 86.429688 64.941406 M 107.699219 36.464844 C 107.699219 36.464844 103.476562 37.359375 103.085938 41.082031 C 102.699219 44.808594 107.699219 41.851562 108.46875 41.59375 M 76.691406 36.722656 C 76.691406 36.722656 71.054688 37.492188 71.054688 41.082031 C 71.054688 44.671875 77.460938 44.417969 79.253906 42.878906 M 41.839844 53.394531 C 41.839844 53.394531 32.097656 47.496094 31.074219 53.140625 C 30.050781 58.785156 27.742188 62.886719 32.613281 68.789062 L 29.28125 67.761719 L 26.203125 59.808594 L 25.179688 52.113281 L 31.074219 45.957031 L 37.738281 46.46875 L 41.582031 49.546875 L 41.839844 53.394531 M 46.449219 37.234375 C 46.449219 37.234375 50.808594 14.660156 72.847656 10.300781 C 90.992188 6.710938 100.523438 11.070312 104.113281 15.171875 C 104.113281 15.171875 87.96875 -4.066406 72.589844 1.835938 C 57.214844 7.734375 45.9375 18.507812 46.195312 25.433594 C 46.628906 37.230469 46.449219 37.234375 46.449219 37.234375 M 105.90625 17.738281 C 105.90625 17.738281 98.476562 17.480469 98.21875 24.152344 C 98.21875 24.152344 98.21875 25.179688 98.730469 26.203125 C 98.730469 26.203125 104.625 19.535156 108.210938 23.125 "/>
<path style=" stroke:none;fill-rule:nonzero;fill:rgb(96.862745%,89.411765%,80.392157%);fill-opacity:1;" d="M 73.363281 26.898438 C 73.363281 26.898438 72.082031 16.660156 63.363281 22.613281 C 57.726562 26.460938 58.238281 31.847656 59.265625 32.875 C 60.289062 33.902344 60.011719 35.964844 60.789062 34.546875 C 61.570312 33.128906 61.3125 28.511719 64.132812 27.230469 C 66.953125 25.949219 71.574219 24.515625 73.363281 26.898438 "/>
<path style=" stroke:none;fill-rule:nonzero;fill:rgb(28.627451%,44.705882%,54.509804%);fill-opacity:1;" d="M 49.269531 96.234375 L 25.179688 107.011719 C 25.179688 107.011719 35.175781 146.773438 30.050781 159.085938 L 26.460938 157.804688 L 26.203125 142.667969 L 19.542969 113.9375 L 16.722656 105.984375 L 41.839844 89.054688 L 49.269531 96.234375 M 51.746094 118.230469 L 55.164062 122.402344 L 55.164062 137.792969 L 51.0625 137.792969 C 51.0625 137.792969 50.550781 127.019531 50.550781 125.738281 C 50.550781 124.453125 51.0625 119.835938 51.0625 119.835938 M 51.832031 140.101562 L 40.300781 140.617188 L 43.632812 142.925781 L 51.832031 144.207031 "/>
<path style=" stroke:none;fill-rule:nonzero;fill:rgb(20%,31.372549%,38.039216%);fill-opacity:1;" d="M 91.296875 137.539062 L 100.78125 137.28125 L 103.085938 160.882812 L 93.347656 162.164062 L 91.296875 137.539062 "/>
<path style=" stroke:none;fill-rule:nonzero;fill:rgb(20%,31.372549%,38.039216%);fill-opacity:1;" d="M 93.863281 137.539062 L 108.210938 136.769531 C 108.210938 136.769531 114.105469 121.890625 114.105469 121.121094 C 114.105469 120.351562 119.230469 99.570312 119.230469 99.570312 L 107.699219 87.515625 L 105.394531 85.460938 L 99.242188 91.621094 L 99.242188 115.476562 L 93.863281 137.539062 "/>
<path style=" stroke:none;fill-rule:nonzero;fill:rgb(28.627451%,44.705882%,54.509804%);fill-opacity:1;" d="M 100.269531 135.742188 L 91.296875 137.539062 L 92.578125 144.722656 C 95.910156 146.261719 101.550781 142.15625 101.550781 142.15625 M 100.523438 90.851562 L 118.464844 104.191406 L 118.976562 98.03125 L 105.394531 85.460938 L 100.523438 90.851562 "/>
<path style=" stroke:none;fill-rule:nonzero;fill:rgb(100%,100%,100%);fill-opacity:1;" d="M 60.726562 188.078125 L 55.421875 166.523438 L 52.78125 150.621094 L 52.347656 138.820312 L 76.359375 137.539062 L 91.296875 137.535156 L 89.941406 164.476562 L 92.246094 185.253906 L 91.992188 189.101562 L 72.515625 190.640625 L 60.726562 188.078125 "/>
<path style=" stroke:none;fill-rule:nonzero;fill:rgb(86.27451%,85.098039%,84.705882%);fill-opacity:1;" d="M 87.96875 137.28125 C 87.96875 137.28125 86.683594 163.960938 90.527344 182.941406 C 90.527344 182.941406 82.839844 187.816406 71.566406 189.097656 L 93.09375 188.328125 L 95.65625 186.789062 L 92.578125 144.722656 L 91.8125 135.742188 "/>
<path style=" stroke:none;fill-rule:nonzero;fill:rgb(100%,100%,100%);fill-opacity:1;" d="M 103.523438 158.832031 L 113.519531 156.011719 L 132.480469 154.984375 L 135.300781 146.261719 L 130.175781 131.128906 L 124.28125 130.355469 L 116.082031 132.921875 L 108.210938 136.769531 L 104.035156 136 L 100.78125 137.28125 "/>
<path style=" stroke:none;fill-rule:nonzero;fill:rgb(86.27451%,85.098039%,84.705882%);fill-opacity:1;" d="M 103.34375 153.699219 C 103.34375 153.699219 110.003906 150.621094 111.03125 150.878906 L 108.210938 136.769531 L 111.542969 135.484375 C 111.542969 135.484375 113.851562 148.824219 113.851562 150.363281 C 113.851562 150.363281 128.199219 151.132812 129.484375 151.132812 C 129.484375 151.132812 132.558594 145.234375 131.789062 139.078125 L 134.609375 147.285156 L 134.863281 151.902344 L 130.765625 158.058594 L 126.152344 159.085938 L 118.460938 158.828125 L 115.898438 155.496094 L 106.929688 156.777344 L 104.113281 157.804688 "/>
<path style=" stroke:none;fill-rule:nonzero;fill:rgb(100%,100%,100%);fill-opacity:1;" d="M 93.273438 135.488281 L 87.632812 121.121094 L 81.738281 112.65625 C 81.738281 112.65625 83.019531 109.066406 84.816406 109.066406 L 90.710938 109.066406 L 96.347656 111.117188 L 95.835938 120.609375 L 93.273438 135.488281 "/>
<path style=" stroke:none;fill-rule:nonzero;fill:rgb(86.27451%,85.098039%,84.705882%);fill-opacity:1;" d="M 94.375 130.609375 C 94.375 130.609375 87.199219 116.757812 87.199219 114.707031 C 87.199219 114.707031 88.480469 111.628906 90.273438 112.398438 C 92.066406 113.167969 95.910156 115.21875 95.910156 115.21875 L 95.910156 110.34375 L 87.199219 108.550781 L 81.304688 109.320312 L 91.296875 132.917969 L 93.347656 133.175781 "/>
<path style=" stroke:none;fill-rule:nonzero;fill:rgb(100%,100%,100%);fill-opacity:1;" d="M 63.03125 96.753906 L 55.933594 95.980469 L 49.269531 93.925781 L 49.269531 96.234375 L 52.527344 99.828125 L 62.777344 104.449219 "/>
<path style=" stroke:none;fill-rule:nonzero;fill:rgb(86.27451%,85.098039%,84.705882%);fill-opacity:1;" d="M 51.578125 97.519531 C 51.578125 97.519531 59.523438 100.855469 62.085938 100.085938 L 62.339844 103.160156 L 55.164062 101.625 L 50.808594 98.546875 L 51.578125 97.519531 "/>
<path style=" stroke:none;fill-rule:nonzero;fill:rgb(82.745098%,21.960784%,20%);fill-opacity:1;" d="M 103.496094 109.9375 C 99.148438 109.8125 95.21875 109.292969 91.777344 108.324219 C 92.011719 106.910156 91.574219 105.527344 91.925781 104.507812 C 92.886719 103.816406 94.492188 103.828125 95.941406 103.667969 C 94.6875 103.050781 92.929688 102.804688 91.480469 103.160156 C 91.445312 102.183594 91.007812 101.574219 90.742188 100.808594 C 93.1875 99.933594 98.957031 94.207031 102.207031 96.105469 C 103.753906 97.007812 104.410156 102.15625 104.53125 104.664062 C 104.628906 106.742188 104.34375 108.839844 103.496094 109.9375 "/>
<path style="fill:none;stroke-width:2.5;stroke-linecap:butt;stroke-linejoin:miter;stroke:rgb(82.745098%,21.960784%,20%);stroke-opacity:1;stroke-miterlimit:4;" d="M 178.227812 188.565984 C 171.159003 188.362953 164.769766 187.519104 159.17442 185.945612 C 159.555487 183.648821 158.844161 181.402788 159.415763 179.746814 C 160.978141 178.623798 163.588455 178.642832 165.944725 178.382698 C 163.906012 177.380231 161.048003 176.980514 158.691734 177.557884 C 158.634574 175.971702 157.923247 174.981925 157.49137 173.738358 C 161.467178 172.31714 170.847798 163.015771 176.131938 166.099308 C 178.646986 167.564939 179.713976 175.927289 179.910861 180.000604 C 180.069639 183.375998 179.606007 186.783116 178.227812 188.565984 Z M 178.227812 188.565984 " transform="matrix(0.615048,0,0,0.615669,-6.12256,-6.156688)"/>
<path style=" stroke:none;fill-rule:nonzero;fill:rgb(82.745098%,21.960784%,20%);fill-opacity:1;" d="M 82.703125 102.824219 C 82.691406 103.152344 82.675781 103.484375 82.664062 103.816406 C 81.304688 104.710938 79.113281 104.699219 77.625 105.449219 C 79.820312 105.542969 81.550781 106.074219 83.046875 106.820312 L 82.949219 109.308594 C 80.460938 111.015625 78.1875 113.554688 75.257812 115.152344 C 73.871094 115.910156 69.007812 117.855469 67.535156 117.511719 C 66.703125 117.320312 66.625 116.285156 66.292969 115.304688 C 65.582031 113.214844 63.945312 109.886719 63.804688 106.738281 C 63.621094 102.765625 63.222656 96.101562 67.5 96.921875 C 70.953125 97.578125 74.972656 99.171875 77.644531 100.632812 C 79.277344 101.527344 80.222656 102.632812 82.703125 102.824219 "/>
<path style="fill:none;stroke-width:2.5;stroke-linecap:butt;stroke-linejoin:miter;stroke:rgb(82.745098%,21.960784%,20%);stroke-opacity:1;stroke-miterlimit:4;" d="M 144.420743 177.012237 C 144.40169 177.545194 144.376285 178.084496 144.357232 178.623798 C 142.147038 180.07674 138.584054 180.057706 136.164273 181.275894 C 139.733609 181.428167 142.54716 182.29105 144.979643 183.502893 L 144.820864 187.544483 C 140.775194 190.317129 137.078836 194.441201 132.315488 197.036194 C 130.060837 198.267071 122.153679 201.426745 119.759303 200.868409 C 118.406512 200.557518 118.27949 198.876165 117.739643 197.283639 C 116.583738 193.88921 113.922614 188.483503 113.693973 183.369653 C 113.39547 176.917066 112.747655 166.092963 119.702143 167.425355 C 125.316542 168.49127 131.851856 171.079918 136.196029 173.452846 C 138.850802 174.905788 140.387775 176.701346 144.420743 177.012237 Z M 144.420743 177.012237 " transform="matrix(0.615048,0,0,0.615669,-6.12256,-6.156688)"/>
<path style=" stroke:none;fill-rule:nonzero;fill:rgb(82.745098%,21.960784%,20%);fill-opacity:1;" d="M 85.175781 107.566406 C 84.792969 105.402344 84.355469 104.78125 84.523438 102.894531 C 90.292969 99.042969 91.378906 109.507812 85.171875 107.566406 "/>
<path style="fill:none;stroke-width:2.5;stroke-linecap:butt;stroke-linejoin:miter;stroke:rgb(82.745098%,21.960784%,20%);stroke-opacity:1;stroke-miterlimit:4;" d="M 148.441009 184.714735 C 147.818598 181.199757 147.107271 180.190945 147.38037 177.126442 C 156.76099 170.870542 158.526604 187.868064 148.434658 184.714735 Z M 148.441009 184.714735 " transform="matrix(0.615048,0,0,0.615669,-6.12256,-6.156688)"/>
<path style=" stroke:none;fill-rule:nonzero;fill:rgb(93.72549%,23.921569%,22.745098%);fill-opacity:1;" d="M 93.527344 109.320312 C 93.527344 109.320312 91.734375 106.757812 93.015625 105.988281 C 94.296875 105.21875 95.578125 105.988281 96.347656 104.703125 C 97.117188 103.421875 96.347656 102.652344 96.605469 101.113281 C 96.859375 99.574219 98.144531 99.316406 99.421875 99.0625 C 100.703125 98.804688 104.292969 98.292969 104.804688 99.574219 L 103.265625 94.957031 L 100.191406 93.929688 L 90.453125 99.574219 L 89.941406 102.394531 L 89.941406 108.039062 M 66.621094 117.789062 C 66.3125 113.785156 65.984375 109.785156 65.625 105.785156 C 65.082031 99.816406 67.054688 100.855469 72.226562 100.855469 C 73.019531 100.855469 77.089844 101.800781 77.382812 102.394531 C 78.78125 105.253906 75.046875 104.617188 78.992188 106.773438 C 82.324219 108.589844 88.210938 105.667969 86.867188 101.625 C 86.113281 100.726562 82.941406 101.347656 81.804688 100.757812 L 75.796875 97.640625 C 73.25 96.316406 67.363281 94.390625 64.648438 96.238281 C 57.765625 100.921875 65.082031 112.625 67.535156 117.511719 "/>
<path style=" stroke:none;fill-rule:nonzero;fill:rgb(13.72549%,12.156863%,12.54902%);fill-opacity:1;" d="M 73.363281 26.898438 C 66.378906 25.269531 62.90625 29.824219 60.789062 34.546875 C 58.898438 34.089844 59.652344 31.515625 60.128906 30.203125 C 61.378906 26.761719 66.417969 22.183594 70.535156 22.804688 C 72.308594 23.070312 74.703125 24.691406 73.363281 26.898438 M 107.394531 34.859375 L 107.726562 34.875 C 109.304688 38.15625 110.671875 41.632812 112.664062 44.53125 C 111.328125 47.640625 102.5625 50.390625 102.695312 44.808594 C 104.59375 43.980469 107.867188 44.640625 109.546875 43.578125 C 108.574219 40.910156 107.171875 38.636719 107.394531 34.859375 M 76.941406 34.945312 C 78.4375 37.695312 78.925781 40.582031 81.054688 42.660156 C 82.011719 43.59375 83.875 44.734375 82.953125 47.335938 C 82.738281 47.949219 81.160156 49.316406 80.246094 49.582031 C 76.917969 50.566406 69.164062 49.785156 71.789062 45.632812 C 74.542969 45.761719 78.242188 47.421875 80.296875 45.421875 C 78.71875 42.894531 75.902344 37.894531 76.941406 34.945312 M 106.144531 62.878906 C 101.136719 66.101562 95.546875 69.605469 87.335938 68.792969 C 85.582031 67.265625 84.914062 63.867188 86.617188 61.621094 C 87.503906 63.148438 86.949219 65.957031 89.421875 66.378906 C 94.078125 67.179688 99.503906 63.527344 102.855469 62.25 C 104.929688 58.742188 102.675781 57.453125 100.800781 55.195312 C 96.96875 50.570312 91.828125 44.839844 92.015625 37.917969 C 93.566406 36.792969 93.699219 39.632812 93.921875 40.148438 C 95.921875 44.839844 100.957031 50.835938 104.632812 54.847656 C 105.535156 55.835938 107.023438 56.78125 107.1875 57.4375 C 107.664062 59.335938 105.949219 61.613281 106.148438 62.878906 M 40.085938 59.484375 C 38.515625 58.585938 38.140625 54.636719 36.296875 54.523438 C 33.660156 54.363281 34.140625 59.648438 34.152344 62.742188 C 32.339844 61.09375 32.019531 56.019531 33.351562 53.414062 C 31.832031 52.667969 31.152344 54.234375 30.3125 54.789062 C 31.394531 46.917969 41.816406 51.136719 40.085938 59.484375 M 109.335938 66.15625 C 107.003906 70.601562 103.707031 75.496094 96.859375 75.636719 C 96.722656 74.203125 96.613281 72.019531 96.867188 71.152344 C 102.101562 70.652344 105.332031 67.984375 109.335938 66.15625 M 76.546875 69.039062 C 80.910156 71.335938 88.933594 71.582031 94.867188 71.410156 C 95.1875 72.710938 95.179688 74.316406 95.191406 75.90625 C 87.5625 76.285156 78.546875 74.394531 76.546875 69.039062 M 75.714844 73.324219 C 78.734375 80.910156 89.109375 80.035156 97.859375 79.828125 C 97.476562 80.8125 96.640625 81.976562 95.601562 82.398438 C 92.796875 83.539062 85.0625 84.40625 81.171875 82.335938 C 78.703125 81.023438 77.117188 78.054688 75.765625 76.3125 C 75.113281 75.472656 71.859375 73.328125 75.714844 73.320312 "/>
<path style=" stroke:none;fill-rule:nonzero;fill:rgb(50.588235%,69.019608%,76.862745%);fill-opacity:1;" d="M 105.78125 115.171875 C 102.238281 121.246094 98.851562 127.484375 94.648438 132.84375 C 96.410156 127.65625 97.164062 118.976562 97.429688 112.359375 C 101.117188 110.632812 104.273438 112.746094 105.78125 115.171875 "/>
<path style=" stroke:none;fill-rule:nonzero;fill:rgb(13.72549%,12.156863%,12.54902%);fill-opacity:1;" d="M 124.847656 137.003906 C 120.878906 137.800781 118.09375 141.65625 114.222656 141.410156 C 116.347656 138.410156 120.074219 137.144531 124.847656 137.003906 M 126.59375 143.21875 C 123.363281 143.558594 119.566406 144.082031 116.285156 143.8125 C 117.839844 141.441406 123.820312 142.257812 126.59375 143.21875 M 127.714844 148.574219 C 124.082031 148.652344 119.566406 148.582031 116.113281 148.292969 C 118.15625 146.09375 125.359375 147.476562 127.714844 148.574219 "/>
<path style=" stroke:none;fill-rule:nonzero;fill:rgb(86.27451%,85.098039%,84.705882%);fill-opacity:1;" d="M 98.945312 163.234375 C 99.464844 167.800781 101.273438 172.429688 101.050781 177.433594 C 99.039062 178.109375 97.886719 178.703125 95.195312 178.699219 C 95.003906 174.449219 94.4375 167.949219 94.605469 163.898438 C 95.929688 163.984375 97.882812 162.949219 98.945312 163.234375 "/>
<path style=" stroke:none;fill-rule:nonzero;fill:rgb(94.117647%,83.921569%,71.764706%);fill-opacity:1;" d="M 93.089844 95.917969 C 91.265625 97.109375 89.710938 98.597656 87.957031 99.871094 C 84.074219 100.0625 81.953125 99.601562 79.097656 97.367188 C 79.144531 97.191406 79.429688 97.269531 79.441406 97.050781 C 83.601562 98.902344 88.890625 96.292969 93.089844 95.917969 "/>
<path style=" stroke:none;fill-rule:nonzero;fill:rgb(50.588235%,69.019608%,76.862745%);fill-opacity:1;" d="M 71.253906 124.296875 C 72.398438 119.34375 76.875 116.773438 80.941406 114.042969 C 85.136719 119.375 87.691406 126.234375 90.5 132.851562 C 83.859375 130.84375 77.074219 127.59375 71.253906 124.296875 "/>
<path style=" stroke:none;fill-rule:nonzero;fill:rgb(13.72549%,12.156863%,12.54902%);fill-opacity:1;" d="M 94.605469 163.898438 C 94.4375 167.949219 95.003906 174.449219 95.195312 178.699219 C 97.886719 178.703125 99.039062 178.113281 101.050781 177.433594 C 101.277344 172.429688 99.46875 167.800781 98.945312 163.234375 C 97.882812 162.949219 95.929688 163.984375 94.605469 163.898438 Z M 52.695312 140.847656 C 54.472656 157.183594 57.042969 170.910156 61.757812 185.375 C 72.222656 188.554688 84.835938 188.832031 94.085938 185.960938 C 92.386719 177.800781 93.128906 167.863281 92.136719 159.148438 C 91.390625 152.601562 91.769531 146.015625 90.746094 139.335938 C 79.535156 137 63.695312 138.789062 52.695312 140.847656 Z M 93.394531 139.4375 C 93.300781 146.453125 93.707031 153.371094 94.242188 160.394531 C 96.933594 159.992188 98.761719 159.71875 101.257812 159.171875 C 100.449219 152.410156 100.546875 144.800781 98.894531 138.820312 C 96.984375 138.839844 95.300781 138.800781 93.394531 139.4375 Z M 107.046875 138.308594 C 105.769531 138.015625 104.28125 138.296875 103.0625 138.320312 C 103.632812 144.039062 105.027344 150.347656 105.515625 156.351562 C 107.4375 156.410156 108.460938 155.503906 110.039062 155.199219 C 110.125 149.929688 109.578125 142.671875 107.046875 138.308594 Z M 127.714844 157.210938 C 131.714844 156.238281 134.230469 151.332031 133.113281 146.292969 C 132.359375 142.90625 131.023438 136.53125 129.589844 134.363281 C 128.535156 132.761719 125.664062 130.664062 123.375 132.132812 C 119.648438 134.519531 113.085938 135.214844 110.371094 138.105469 C 111.730469 142.644531 112.152344 148.882812 112.714844 154.636719 C 117.371094 154.925781 123.097656 153.351562 126.96875 155.023438 C 124.265625 155.898438 120.757812 155.90625 118.425781 157.183594 C 120.332031 158.105469 124.800781 157.917969 127.714844 157.210938 Z M 90.5 132.851562 C 87.691406 126.234375 85.136719 119.375 80.941406 114.042969 C 76.875 116.773438 72.398438 119.339844 71.253906 124.296875 C 77.074219 127.59375 83.859375 130.84375 90.5 132.851562 Z M 97.429688 112.359375 C 97.164062 118.976562 96.410156 127.65625 94.648438 132.84375 C 98.851562 127.488281 102.238281 121.25 105.78125 115.175781 C 104.273438 112.746094 101.117188 110.632812 97.429688 112.359375 Z M 89.574219 109.566406 C 87.984375 109.394531 86.632812 111.398438 84.558594 110.53125 C 84.085938 111.058594 83.65625 111.625 83.171875 112.136719 C 87.746094 117.65625 89.824219 125.480469 93.355469 131.964844 C 95.25 125.738281 95.03125 118.914062 95.449219 112.117188 C 92.84375 112.28125 91.398438 109.761719 89.574219 109.566406 Z M 84.523438 102.894531 C 84.355469 104.78125 84.792969 105.402344 85.175781 107.566406 C 91.378906 109.507812 90.292969 99.042969 84.523438 102.894531 Z M 77.644531 100.632812 C 74.972656 99.171875 70.953125 97.578125 67.5 96.917969 C 63.222656 96.097656 63.625 102.761719 63.804688 106.738281 C 63.949219 109.886719 65.582031 113.214844 66.292969 115.304688 C 66.628906 116.28125 66.703125 117.316406 67.535156 117.511719 C 69.007812 117.855469 73.871094 115.910156 75.257812 115.152344 C 78.1875 113.554688 80.460938 111.015625 82.949219 109.308594 C 82.980469 108.476562 83.011719 107.648438 83.046875 106.820312 C 81.550781 106.074219 79.820312 105.542969 77.625 105.449219 C 79.113281 104.695312 81.304688 104.707031 82.664062 103.816406 C 82.675781 103.480469 82.691406 103.152344 82.703125 102.820312 C 80.222656 102.632812 79.277344 101.527344 77.644531 100.632812 Z M 52.109375 95.988281 C 49.890625 98.242188 58.332031 101.316406 61.023438 101.484375 C 61.007812 100.054688 61.832031 98.710938 61.667969 97.6875 C 58.472656 97.125 54.277344 97.496094 52.109375 95.988281 Z M 79.441406 97.046875 C 79.433594 97.269531 79.144531 97.1875 79.097656 97.367188 C 81.953125 99.601562 84.074219 100.0625 87.957031 99.871094 C 89.710938 98.597656 91.265625 97.109375 93.089844 95.917969 C 88.890625 96.292969 83.601562 98.902344 79.441406 97.046875 Z M 104.53125 104.664062 C 104.410156 102.15625 103.753906 97.007812 102.207031 96.105469 C 98.960938 94.207031 93.1875 99.933594 90.742188 100.808594 C 91.007812 101.574219 91.449219 102.183594 91.480469 103.164062 C 92.929688 102.808594 94.6875 103.050781 95.941406 103.667969 C 94.492188 103.828125 92.886719 103.820312 91.929688 104.507812 C 91.574219 105.527344 92.015625 106.910156 91.78125 108.324219 C 95.21875 109.292969 99.148438 109.8125 103.496094 109.9375 C 104.34375 108.835938 104.628906 106.742188 104.53125 104.664062 Z M 48.375 98.171875 C 47.679688 97.671875 42.964844 91.535156 42.320312 91.789062 C 33.789062 95.15625 25.816406 100.976562 18.6875 106.484375 C 25.484375 121.078125 28.226562 138.957031 28.710938 156.191406 C 36.496094 159.835938 43.332031 165.089844 53.894531 165.636719 C 52.671875 156.980469 51.554688 149.257812 50.863281 141.109375 C 48.207031 139.988281 44.402344 141.160156 41.917969 140.761719 C 41.898438 137.765625 45.710938 139.449219 46.027344 137.433594 C 46.265625 135.910156 43.929688 135.796875 44.691406 133.394531 C 46.632812 134.101562 47.652344 135.664062 49.722656 136.25 C 51.613281 132.105469 49.695312 124.773438 49.96875 121.3125 C 50.019531 120.660156 50.292969 117.710938 51.746094 118.226562 C 53.035156 118.683594 51.675781 126.078125 51.816406 129.355469 C 51.945312 132.375 51.449219 135.296875 52.671875 137.195312 C 62.878906 135.800781 73.25 134.902344 84.292969 134.601562 C 81.863281 133.558594 78.976562 132.570312 75.8125 130.785156 C 74.097656 129.816406 68.691406 127.800781 68.195312 126.171875 C 67.40625 123.574219 70.265625 122.1875 70.757812 119.960938 C 65.605469 122.773438 64.597656 117.265625 63.382812 113.363281 C 62.277344 109.828125 61.648438 107.1875 61.378906 105.148438 C 56.941406 103.03125 52.195312 100.886719 48.375 98.171875 Z M 100.023438 92.53125 C 107.128906 89.082031 108.410156 105.421875 105.625 110.6875 C 106.054688 112.257812 107.535156 112.859375 108.140625 114.269531 C 104.175781 121.378906 99.769531 128.019531 95.722656 135.046875 C 98.734375 133.167969 103.03125 134.710938 106.574219 133.304688 C 107.871094 132.792969 108.804688 129.828125 109.785156 127.453125 C 112.484375 120.921875 115.3125 112.691406 116.574219 106.460938 C 116.859375 105.039062 117.632812 101.945312 117.460938 100.683594 C 117.148438 98.421875 114.082031 96.742188 112.523438 95.34375 C 109.648438 92.757812 107.839844 90.484375 104.839844 88.070312 C 103.625 89.863281 101.015625 91.070312 100.023438 92.53125 Z M 32.121094 29.449219 C 28.734375 33.179688 29.445312 40.167969 29.855469 45.140625 C 35.976562 41.285156 44.097656 45.441406 44.023438 52 C 46.945312 51.921875 45.113281 48.34375 44.585938 46.042969 C 42.859375 38.519531 47.496094 30.34375 44.796875 23.464844 C 39.554688 23.863281 35.246094 26.007812 32.121094 29.449219 Z M 56.351562 7.804688 C 48.6875 9.980469 38.863281 15.554688 35.710938 22.449219 C 38.152344 22.09375 39.84375 20.863281 42.25 20.710938 C 43.160156 20.652344 44.351562 21.089844 45.394531 20.832031 C 47.476562 20.316406 49.234375 15.640625 50.808594 13.902344 C 52.339844 12.203125 54.179688 11.476562 55.441406 9.929688 C 56.25 9.539062 57.445312 9.566406 57.492188 8.347656 C 57.140625 7.972656 56.769531 7.6875 56.351562 7.804688 Z M 96.253906 9.851562 C 88.296875 5.359375 74.832031 1.976562 66.367188 6.199219 C 59.539062 9.609375 50.308594 15.25 47.160156 22.394531 C 50.097656 29.292969 46.289062 35.609375 46.046875 42.613281 C 45.917969 46.335938 47.796875 49.589844 47.941406 53.644531 C 46.933594 55.308594 43.863281 55.511719 41.734375 55.398438 C 41.019531 51.808594 39.765625 47.777344 36.074219 47.371094 C 30.851562 46.800781 27.035156 51.128906 26.796875 55.648438 C 26.515625 60.964844 30.875 69.777344 37.054688 69.167969 C 39.441406 68.929688 40.03125 66.535156 42.628906 66.558594 C 44.039062 69.375 40.457031 70.261719 40.085938 72.273438 C 39.992188 72.792969 40.382812 74.828125 40.613281 75.78125 C 41.734375 80.421875 44.238281 86.433594 46.699219 89.96875 C 49.828125 94.453125 55.96875 95.128906 62.578125 95.566406 C 63.757812 93.019531 68.105469 93.230469 70.9375 93.898438 C 67.542969 92.550781 64.386719 89.289062 61.769531 86.398438 C 58.765625 83.085938 55.722656 79.53125 55.570312 75.199219 C 61.246094 83.085938 65.9375 89.972656 76.261719 93.441406 C 84.074219 96.0625 93.199219 92.238281 99.203125 88.019531 C 101.691406 86.265625 103.179688 83.480469 104.949219 80.933594 C 111.574219 71.394531 114.667969 57.777344 113.988281 44.582031 C 113.707031 39.140625 113.71875 33.71875 111.894531 30.054688 C 109.988281 26.226562 103.539062 22.800781 99.765625 26.265625 C 99.066406 22.542969 102.902344 20.238281 107.414062 21.578125 C 104.199219 17.421875 100.824219 12.433594 96.253906 9.851562 Z M 111.078125 132.652344 C 117.296875 129.558594 128.910156 124.324219 132.808594 132.664062 C 134.25 135.738281 135.9375 140.933594 136.679688 144.105469 C 137.734375 148.582031 135.539062 157.992188 130.941406 159.496094 C 126.882812 160.820312 122.144531 160.742188 117.253906 159.757812 C 116.679688 159.277344 116.039062 158.441406 115.589844 157.570312 C 112.097656 157.433594 108.828125 157.757812 106.070312 159.195312 C 106.332031 161.78125 104.585938 162.195312 102.945312 162.726562 C 101.734375 167.546875 105.375 173.839844 104.503906 178.230469 C 103.882812 181.363281 100.035156 181.847656 97.207031 182.433594 C 97.113281 184.171875 97.332031 185.625 97.523438 187.09375 C 96.878906 189.480469 93.976562 190.835938 91.226562 191.171875 C 82.1875 192.257812 68.460938 192.746094 59.765625 189.617188 C 57.339844 183.65625 55.429688 176.410156 53.40625 169.609375 C 44.925781 170.515625 38.066406 165.945312 31.601562 162.949219 C 29.363281 161.910156 26.265625 161.339844 25.429688 159.554688 C 24.617188 157.828125 24.949219 154.519531 24.746094 151.390625 C 24.234375 143.40625 23.796875 135.703125 21.691406 127.523438 C 20.746094 123.855469 19.09375 120.617188 17.945312 117.082031 C 16.882812 113.804688 15.027344 109.757812 14.539062 106.488281 C 13.824219 101.644531 18.378906 101.375 21.289062 99.277344 C 25.792969 96.03125 29.328125 94.238281 34.207031 91.308594 C 35.652344 90.441406 40.007812 88.246094 40.5 87.234375 C 41.488281 85.230469 38.8125 82.402344 38.09375 80.832031 C 36.964844 78.347656 36.375 76.234375 36.210938 73.78125 C 32.121094 73.136719 29.019531 70.699219 27.144531 67.949219 C 24.046875 63.402344 21.898438 54.988281 24.578125 48.585938 C 24.789062 48.082031 25.839844 47.089844 25.992188 46.316406 C 26.296875 44.792969 25.417969 42.765625 25.363281 41.144531 C 25.082031 32.824219 26.769531 25.65625 32.363281 23.148438 C 34.636719 14.089844 42.765625 11.078125 50.425781 6.578125 C 53.289062 4.894531 56.441406 3.820312 59.703125 2.621094 C 71.394531 -1.6875 89.332031 -0.875 99.039062 6.46875 C 103.152344 9.585938 109.730469 16.164062 112.082031 20.925781 C 118.296875 33.496094 117.855469 54.511719 113.507812 69.804688 C 112.925781 71.855469 112.078125 74.875 110.894531 77.34375 C 110.070312 79.0625 107.503906 82.511719 107.816406 84.03125 C 108.136719 85.601562 113.664062 89.804688 114.847656 90.945312 C 116.980469 93.007812 121.035156 95.742188 121.363281 98.339844 C 121.714844 101.109375 120.144531 104.890625 119.347656 107.5625 C 116.691406 116.472656 114.09375 124.707031 111.078125 132.652344 "/>
<path style=" stroke:none;fill-rule:nonzero;fill:rgb(96.862745%,89.411765%,80.392157%);fill-opacity:1;" d="M 69.597656 70.976562 C 69.933594 70.527344 71.789062 69.847656 74.382812 71.097656 C 74.382812 71.097656 71.308594 71.609375 71.566406 76.742188 L 70.285156 76.484375 C 70.285156 76.484375 68.960938 71.832031 69.597656 70.976562 "/>
<path style=" stroke:none;fill-rule:nonzero;fill:rgb(11.372549%,9.803922%,9.803922%);fill-opacity:1;" d="M 92.066406 115.09375 C 92.066406 115.871094 91.4375 116.503906 90.660156 116.503906 C 89.878906 116.503906 89.25 115.871094 89.25 115.09375 C 89.25 114.3125 89.878906 113.679688 90.660156 113.679688 C 91.4375 113.679688 92.066406 114.3125 92.066406 115.09375 M 93.476562 121.632812 C 93.476562 122.414062 92.84375 123.042969 92.066406 123.042969 C 91.289062 123.042969 90.65625 122.410156 90.65625 121.632812 C 90.65625 120.851562 91.289062 120.222656 92.066406 120.222656 C 92.847656 120.222656 93.476562 120.855469 93.476562 121.632812 "/>
<path style=" stroke:none;fill-rule:nonzero;fill:rgb(0%,0%,0%);fill-opacity:1;" d="M 241.195312 64.246094 C 239.753906 64.425781 238.527344 64.605469 237.519531 64.785156 C 236.375 64.996094 235.238281 65.25 234.113281 65.542969 C 232.636719 65.941406 231.6875 66.644531 231.277344 67.65625 C 230.863281 68.667969 230.65625 69.824219 230.65625 71.121094 L 230.65625 113.46875 C 230.65625 117.367188 229.871094 120.941406 228.300781 124.191406 C 226.734375 127.4375 224.582031 130.164062 221.84375 132.367188 C 219.066406 134.535156 215.96875 136.167969 212.542969 137.265625 C 209.121094 138.367188 205.464844 138.917969 201.570312 138.917969 C 194.832031 138.917969 189.398438 137.296875 185.273438 134.050781 C 181.144531 130.800781 179.082031 126.347656 179.082031 120.683594 C 179.082031 117.328125 180.03125 114.550781 181.921875 112.351562 C 183.8125 110.148438 186.417969 109.050781 189.734375 109.050781 C 192.867188 109.050781 195.363281 109.96875 197.21875 111.808594 C 199.074219 113.648438 200.003906 115.921875 200.003906 118.628906 C 200.003906 120.9375 199.199219 123.074219 197.597656 125.039062 C 195.992188 127.003906 194.164062 128.820312 192.109375 130.476562 L 192.109375 131.179688 C 192.4375 131.902344 193.140625 132.515625 194.226562 133.019531 C 195.308594 133.527344 196.410156 133.777344 197.53125 133.777344 C 201.867188 133.777344 205.273438 132.226562 207.75 129.121094 C 210.222656 126.015625 211.464844 121.324219 211.464844 115.039062 L 211.464844 71.664062 C 211.464844 70.363281 211.265625 69.28125 210.863281 68.414062 C 210.464844 67.546875 209.507812 66.789062 207.988281 66.140625 C 206.898438 65.671875 205.589844 65.273438 204.046875 64.949219 C 202.507812 64.625 201.230469 64.390625 200.21875 64.246094 L 200.21875 60.023438 L 241.195312 60.023438 Z M 305.304688 123.875 C 304.042969 125.933594 302.523438 127.871094 300.738281 129.695312 C 298.957031 131.515625 296.925781 133.078125 294.65625 134.375 C 292.242188 135.746094 289.800781 136.78125 287.332031 137.484375 C 284.863281 138.1875 282.023438 138.539062 278.816406 138.539062 C 273.484375 138.539062 268.878906 137.785156 265.007812 136.269531 C 261.132812 134.753906 257.933594 132.714844 255.410156 130.152344 C 252.890625 127.59375 251.003906 124.570312 249.761719 121.089844 C 248.519531 117.609375 247.898438 113.832031 247.898438 109.753906 C 247.898438 106.074219 248.574219 102.550781 249.925781 99.175781 C 251.257812 95.835938 253.210938 92.777344 255.683594 90.167969 C 258.132812 87.605469 261.222656 85.53125 264.953125 83.941406 C 268.683594 82.355469 272.855469 81.5625 277.46875 81.5625 C 282.511719 81.5625 286.65625 82.175781 289.898438 83.402344 C 293.144531 84.628906 295.828125 86.324219 297.953125 88.488281 C 300.007812 90.546875 301.503906 92.972656 302.441406 95.765625 C 303.378906 98.5625 303.847656 101.492188 303.847656 104.558594 L 303.847656 108.078125 L 267.304688 108.078125 C 267.304688 115.472656 268.726562 121.101562 271.574219 124.960938 C 274.421875 128.820312 278.945312 130.75 285.144531 130.75 C 288.53125 130.75 291.574219 129.820312 294.277344 127.964844 C 296.980469 126.105469 299.289062 123.75 301.199219 120.902344 Z M 284.65625 103.3125 C 284.65625 101.148438 284.546875 98.929688 284.332031 96.660156 C 284.117188 94.386719 283.738281 92.527344 283.195312 91.085938 C 282.585938 89.390625 281.746094 88.109375 280.683594 87.242188 C 279.621094 86.378906 278.277344 85.945312 276.65625 85.945312 C 273.882812 85.945312 271.664062 87.351562 270.007812 90.164062 C 268.347656 92.976562 267.449219 97.433594 267.304688 103.53125 Z M 381.851562 136.808594 L 349.363281 136.808594 L 349.363281 132.859375 C 350.046875 132.785156 350.875 132.695312 351.847656 132.585938 C 352.824219 132.480469 353.5625 132.300781 354.066406 132.046875 C 354.820312 131.648438 355.363281 131.070312 355.6875 130.316406 C 356.011719 129.558594 356.171875 128.441406 356.171875 126.960938 L 356.171875 101.636719 C 356.171875 97.957031 355.496094 95.1875 354.140625 93.328125 C 352.785156 91.472656 350.789062 90.542969 348.148438 90.542969 C 346.703125 90.542969 345.359375 90.757812 344.113281 91.191406 C 342.867188 91.625 341.644531 92.257812 340.453125 93.085938 C 339.40625 93.808594 338.566406 94.546875 337.933594 95.304688 C 337.382812 95.960938 336.851562 96.628906 336.332031 97.308594 L 336.332031 126.367188 C 336.332031 127.628906 336.515625 128.683594 336.875 129.53125 C 337.234375 130.378906 337.828125 131.019531 338.65625 131.453125 C 339.234375 131.777344 339.957031 132.066406 340.820312 132.316406 C 341.683594 132.570312 342.53125 132.75 343.359375 132.859375 L 343.359375 136.808594 L 310.496094 136.808594 L 310.496094 132.859375 C 311.40625 132.785156 312.316406 132.6875 313.222656 132.558594 C 314.144531 132.433594 314.925781 132.261719 315.574219 132.046875 C 316.730469 131.648438 317.523438 131.035156 317.953125 130.207031 C 318.386719 129.378906 318.605469 128.292969 318.605469 126.960938 L 318.605469 95.464844 C 318.605469 94.347656 318.316406 93.246094 317.738281 92.164062 C 317.160156 91.082031 316.40625 90.199219 315.46875 89.515625 C 314.820312 89.082031 314 88.722656 313.007812 88.429688 C 312.015625 88.144531 310.929688 87.945312 309.738281 87.835938 L 309.738281 83.886719 L 335.523438 82.480469 L 336.335938 83.292969 L 336.335938 91.136719 L 336.550781 91.136719 C 337.769531 90.050781 338.996094 88.96875 340.226562 87.890625 C 341.667969 86.628906 343 85.601562 344.226562 84.804688 C 345.558594 83.941406 347.308594 83.203125 349.46875 82.585938 C 351.632812 81.972656 353.9375 81.667969 356.390625 81.667969 C 362.261719 81.667969 366.667969 83.335938 369.605469 86.671875 C 372.542969 90.011719 374.011719 94.4375 374.011719 99.957031 L 374.011719 126.472656 C 374.011719 127.808594 374.207031 128.871094 374.605469 129.664062 C 375 130.460938 375.742188 131.089844 376.820312 131.558594 C 377.398438 131.8125 378.109375 132.066406 378.957031 132.316406 C 379.804688 132.570312 380.765625 132.75 381.847656 132.859375 L 381.847656 136.808594 Z M 456.234375 136.808594 L 430.753906 136.808594 C 427.621094 131.304688 424.757812 126.632812 422.167969 122.804688 C 419.75 119.226562 417.300781 115.675781 414.820312 112.144531 L 411.636719 114.839844 L 411.636719 126.636719 C 411.636719 127.933594 411.824219 129 412.203125 129.828125 C 412.582031 130.65625 413.3125 131.273438 414.394531 131.667969 C 415.042969 131.957031 415.796875 132.210938 416.664062 132.425781 C 417.527344 132.640625 418.394531 132.785156 419.257812 132.859375 L 419.257812 136.808594 L 385.6875 136.808594 L 385.6875 132.859375 C 386.597656 132.785156 387.507812 132.6875 388.410156 132.558594 C 389.316406 132.433594 390.117188 132.261719 390.804688 132.046875 C 391.964844 131.648438 392.753906 131.035156 393.171875 130.207031 C 393.589844 129.375 393.796875 128.292969 393.796875 126.957031 L 393.796875 66.625 C 393.796875 65.433594 393.535156 64.199219 393.011719 62.917969 C 392.492188 61.636719 391.722656 60.671875 390.714844 60.023438 C 390.03125 59.589844 389.003906 59.230469 387.636719 58.941406 C 386.265625 58.652344 385.023438 58.472656 383.90625 58.398438 L 383.90625 54.449219 L 410.824219 53.042969 L 411.636719 53.910156 L 411.636719 109.75 C 414.296875 107.367188 417.292969 104.609375 420.625 101.472656 C 423.953125 98.332031 426.625 95.734375 428.640625 93.679688 C 429.832031 92.453125 430.488281 91.523438 430.613281 90.894531 C 430.742188 90.261719 430.804688 89.875 430.804688 89.730469 C 430.804688 89.082031 430.234375 88.539062 429.097656 88.105469 C 427.960938 87.675781 426.246094 87.292969 423.960938 86.96875 L 423.960938 83.128906 L 451.421875 83.128906 L 451.421875 86.863281 C 447.824219 87.875 445.078125 88.820312 443.191406 89.703125 C 441.300781 90.585938 439.242188 91.769531 437.011719 93.246094 C 435.542969 94.214844 434.113281 95.238281 432.722656 96.308594 C 431.339844 97.375 429.75 98.707031 427.953125 100.296875 C 431.480469 105.417969 434.734375 110.160156 437.71875 114.523438 C 440.707031 118.886719 443.835938 123.5 447.109375 128.367188 C 448.222656 130.0625 449.609375 131.199219 451.265625 131.773438 C 452.921875 132.351562 454.578125 132.714844 456.234375 132.855469 Z M 490.992188 136.808594 L 456.828125 136.808594 L 456.828125 132.859375 C 457.765625 132.785156 458.683594 132.695312 459.585938 132.585938 C 460.484375 132.480469 461.261719 132.300781 461.910156 132.046875 C 463.0625 131.613281 463.875 130.992188 464.339844 130.179688 C 464.808594 129.367188 465.042969 128.296875 465.042969 126.960938 L 465.042969 95.464844 C 465.042969 94.203125 464.753906 93.09375 464.179688 92.136719 C 463.601562 91.183594 462.882812 90.414062 462.015625 89.839844 C 461.367188 89.40625 460.386719 88.992188 459.070312 88.59375 C 457.753906 88.199219 456.558594 87.945312 455.476562 87.835938 L 455.476562 83.886719 L 481.964844 82.480469 L 482.773438 83.292969 L 482.773438 126.257812 C 482.773438 127.519531 483.046875 128.589844 483.585938 129.476562 C 484.128906 130.359375 484.902344 131.019531 485.910156 131.449219 C 486.632812 131.777344 487.425781 132.066406 488.289062 132.316406 C 489.152344 132.570312 490.054688 132.75 490.992188 132.859375 Z M 483.097656 63 C 483.097656 65.742188 482.042969 68.078125 479.9375 70.007812 C 477.828125 71.9375 475.332031 72.902344 472.449219 72.902344 C 469.53125 72.902344 467.019531 71.9375 464.910156 70.007812 C 462.800781 68.078125 461.746094 65.742188 461.746094 63 C 461.746094 60.261719 462.800781 57.914062 464.910156 55.964844 C 467.015625 54.019531 469.53125 53.042969 472.449219 53.042969 C 475.367188 53.042969 477.875 54.019531 479.964844 55.964844 C 482.054688 57.914062 483.097656 60.261719 483.097656 63 Z M 567.320312 136.808594 L 534.832031 136.808594 L 534.832031 132.859375 C 535.515625 132.785156 536.347656 132.695312 537.320312 132.585938 C 538.289062 132.480469 539.03125 132.300781 539.535156 132.046875 C 540.292969 131.648438 540.832031 131.070312 541.15625 130.316406 C 541.480469 129.558594 541.644531 128.441406 541.644531 126.960938 L 541.644531 101.636719 C 541.644531 97.957031 540.964844 95.1875 539.609375 93.328125 C 538.253906 91.472656 536.257812 90.542969 533.621094 90.542969 C 532.175781 90.542969 530.828125 90.757812 529.582031 91.191406 C 528.335938 91.625 527.117188 92.257812 525.921875 93.085938 C 524.875 93.808594 524.035156 94.546875 523.402344 95.304688 C 522.851562 95.960938 522.320312 96.628906 521.804688 97.308594 L 521.804688 126.367188 C 521.804688 127.628906 521.984375 128.683594 522.34375 129.53125 C 522.703125 130.378906 523.296875 131.019531 524.125 131.453125 C 524.703125 131.777344 525.425781 132.066406 526.289062 132.316406 C 527.152344 132.570312 528 132.75 528.832031 132.859375 L 528.832031 136.808594 L 495.964844 136.808594 L 495.964844 132.859375 C 496.875 132.785156 497.785156 132.6875 498.695312 132.558594 C 499.613281 132.433594 500.398438 132.261719 501.046875 132.046875 C 502.199219 131.648438 502.992188 131.035156 503.421875 130.207031 C 503.855469 129.378906 504.074219 128.292969 504.074219 126.960938 L 504.074219 95.464844 C 504.074219 94.347656 503.785156 93.246094 503.207031 92.164062 C 502.632812 91.082031 501.875 90.199219 500.9375 89.515625 C 500.289062 89.082031 499.46875 88.722656 498.476562 88.429688 C 497.484375 88.144531 496.398438 87.945312 495.207031 87.835938 L 495.207031 83.886719 L 520.992188 82.480469 L 521.804688 83.292969 L 521.804688 91.136719 L 522.019531 91.136719 C 523.238281 90.050781 524.464844 88.96875 525.695312 87.890625 C 527.136719 86.628906 528.46875 85.601562 529.695312 84.804688 C 531.027344 83.941406 532.777344 83.203125 534.9375 82.585938 C 537.101562 81.972656 539.40625 81.667969 541.859375 81.667969 C 547.730469 81.667969 552.136719 83.335938 555.074219 86.671875 C 558.011719 90.011719 559.480469 94.4375 559.480469 99.957031 L 559.480469 126.472656 C 559.480469 127.808594 559.675781 128.871094 560.074219 129.664062 C 560.472656 130.460938 561.210938 131.089844 562.292969 131.558594 C 562.867188 131.8125 563.578125 132.066406 564.425781 132.316406 C 565.273438 132.570312 566.238281 132.75 567.316406 132.859375 L 567.316406 136.808594 Z M 597.375 138.648438 C 593.902344 138.652344 590.449219 138.132812 587.132812 137.105469 C 583.800781 136.078125 581.214844 134.988281 579.375 133.832031 L 577.753906 137.511719 L 573.539062 137.511719 L 572.835938 117.328125 L 576.78125 117.328125 C 577.324219 118.949219 578.222656 120.78125 579.484375 122.820312 C 580.746094 124.859375 582.1875 126.6875 583.808594 128.3125 C 585.503906 129.9375 587.4375 131.308594 589.621094 132.425781 C 591.800781 133.542969 594.132812 134.105469 596.621094 134.105469 C 599.898438 134.105469 602.339844 133.464844 603.945312 132.183594 C 605.546875 130.902344 606.351562 128.925781 606.351562 126.257812 C 606.351562 124.816406 605.992188 123.625 605.269531 122.6875 C 604.546875 121.75 603.558594 120.9375 602.296875 120.25 C 600.890625 119.53125 599.351562 118.917969 597.675781 118.410156 C 596 117.90625 593.9375 117.292969 591.484375 116.570312 C 589.035156 115.851562 586.933594 115.117188 585.1875 114.378906 C 583.4375 113.640625 581.628906 112.476562 579.753906 110.890625 C 578.132812 109.480469 576.835938 107.789062 575.863281 105.804688 C 574.890625 103.820312 574.402344 101.457031 574.402344 98.714844 C 574.402344 93.628906 576.539062 89.515625 580.808594 86.378906 C 585.082031 83.238281 590.675781 81.667969 597.59375 81.667969 C 600.875 81.667969 603.890625 82.003906 606.648438 82.671875 C 609.40625 83.339844 611.722656 84.066406 613.59375 84.863281 L 614.730469 81.671875 L 618.839844 81.671875 L 619.703125 100.121094 L 615.921875 100.121094 C 614.65625 96.371094 612.496094 93.132812 609.433594 90.410156 C 606.371094 87.6875 603.074219 86.324219 599.539062 86.324219 C 596.765625 86.324219 594.585938 86.902344 593 88.054688 C 591.414062 89.210938 590.621094 90.816406 590.621094 92.871094 C 590.621094 95.613281 591.78125 97.597656 594.101562 98.824219 C 596.421875 100.050781 599.667969 101.203125 603.839844 102.285156 C 610.28125 103.945312 614.992188 106.210938 617.980469 109.078125 C 620.96875 111.945312 622.460938 115.597656 622.460938 120.035156 C 622.460938 125.949219 620.144531 130.53125 615.511719 133.777344 C 610.882812 137.023438 604.835938 138.648438 597.375 138.648438 Z M 597.375 138.648438 "/>
</g>
</svg>
